<svg xmlns="http://www.w3.org/2000/svg" viewBox="0 0 32 32">
  <path d="M15.9.476a2.14 2.14 0 00-.823.218L3.932 6.01c-.582.277-1.005.804-1.15 1.432L.054 19.373c-.13.56-.025 1.14.3 1.614.326.473.83.803 1.408.928l12.023 2.591a2.15 2.15 0 00.862 0l12.024-2.59a2.15 2.15 0 001.408-.928c.326-.474.431-1.055.3-1.615l-2.728-11.93a2.15 2.15 0 00-1.15-1.432L16.724.694a2.14 2.14 0 00-.823-.218zm.15 2.786l.242.505c.11.228.191.458.25.689l.035.142.099-.097a2.922 2.922 0 01.17-.158l.134-.12-.022-.144a2.85 2.85 0 00-.268-.786l-.33-.69a12.473 12.473 0 012.71 1.297c-.294.168-.657.571-.866.814l-.207.243.196.253c.109.14.219.296.314.446l.08.124.092-.116c.113-.142.524-.554.948-.768l.453.297c.281.183.528.374.769.575l-.392.33-.318.27.397.143c.264.096.491.198.721.34l.157.1.149-.111c.142-.104.527-.409.663-.622.522.53.93 1.09 1.227 1.675-.168.273-.601.673-.819.85l-.192.155.187.161c.11.094.217.201.32.316l.094.107.115-.086c.221-.168.694-.469.983-.58.156.539.25 1.091.283 1.651l-.728.156-.649.14.338.591c.13.228.215.405.302.634l.064.167.173-.046c.345-.09.775-.358 1.067-.54a12.63 12.63 0 01-.496 3.393c-.236.072-.743.172-1.03.197l-.237.021.07.231c.053.177.098.356.134.534l.035.172.174-.034c.332-.064.863-.274 1.181-.405-.225.731-.513 1.437-.879 2.11-.263-.004-.81-.105-1.116-.2l-.254-.079-.022.264c-.019.211-.033.381-.06.593l-.025.191.188.036c.391.075.939.119 1.278.094a12.47 12.47 0 01-5.317 4.271l-.181-.738-.17-.696-.239.632c-.128.337-.255.629-.394.926l-.128.273.296.048c.162.026.377.041.608.057l.289.02-.092.28a12.485 12.485 0 01-2.63-.22c.124-.231.338-.723.422-1.013l.075-.26-.27-.03a5.992 5.992 0 01-.482-.076l-.135-.027-.059.126c-.121.257-.274.788-.305 1.107-.697-.208-1.367-.484-2.005-.822.04-.252.212-.82.336-1.097l.077-.174-.186-.04a5.168 5.168 0 01-.496-.155l-.124-.048-.092.097c-.171.183-.481.729-.6 1.055a12.498 12.498 0 01-1.835-1.323c.13-.232.459-.74.652-.978l.143-.175-.194-.11a7.106 7.106 0 01-.462-.288l-.13-.088-.108.113c-.194.202-.572.747-.668 1.04-.566-.563-1.064-1.176-1.488-1.828.203-.166.605-.6.825-.86l.167-.197-.172-.194a8.323 8.323 0 01-.308-.37l-.063-.08-.118.09c-.252.197-.753.602-.913.871-.342-.655-.622-1.343-.832-2.054.238-.102.726-.423.979-.621l.201-.158-.143-.213a8.041 8.041 0 01-.243-.4l-.08-.143-.139.1c-.282.201-.822.493-1.062.6-.134-.617-.214-1.249-.238-1.892.276-.04.827-.202 1.136-.318l.258-.098-.032-.273a7.582 7.582 0 01-.021-.41v-.144l-.147.005c-.319.013-.927.092-1.22.178.04-.647.145-1.28.313-1.898.233.034.771.05 1.088.032l.27-.015-.012-.27a6.735 6.735 0 01.005-.435l.01-.132-.132-.01a8.897 8.897 0 00-1.16-.011A12.473 12.473 0 017.59 4.453c.214.104.674.415.893.597l.189.156.078-.233a6.547 6.547 0 01.142-.36l.072-.16-.176-.09c-.327-.168-.776-.333-1.064-.392a12.486 12.486 0 011.695-1.465c.182.168.573.6.756.839l.13.166.154-.144c.098-.09.211-.182.327-.265l.126-.09-.105-.115c-.236-.258-.623-.597-.894-.783A12.499 12.499 0 0116.051 3.262z"/>
  <path d="M16.134 9.953c-2.16 0-3.9 1.744-3.9 3.905 0 2.161 1.74 3.905 3.9 3.905 2.159 0 3.899-1.744 3.899-3.905 0-2.16-1.74-3.905-3.899-3.905zm.003 1.3a2.604 2.604 0 12.596 2.605 2.602 2.602 0 01-2.596-2.605z"/>
  <path d="M25.047 16.628c-.593-.144-1.103-.303-1.566-.514-1.275 3.764-4.903 6.318-9.306 6.318-5.06 0-9.24-3.721-9.935-8.583l-.012-.084-.059-.007C3.363 13.626 2.603 13.353 2 13.01l-.125.468.052.115c.348.781.83 1.535 1.437 2.244.859 1.127 1.877 2.163 3.032 3.083a20.97 20.97 0 003.854 2.27c.47.217.944.416 1.421.599 1.618.62 3.278.992 4.93 1.11.78.055 1.566.055 2.348 0 1.65-.118 3.31-.49 4.93-1.11.477-.183.95-.382 1.42-.598a20.968 20.968 0 003.854-2.271c1.155-.92 2.173-1.956 3.032-3.083.607-.709 1.09-1.463 1.437-2.244l.052-.115z"/>
</svg>